<svg width="14.837952" height="14.726250" viewBox="0 0 14.838 14.7262" fill="none" xmlns="http://www.w3.org/2000/svg" xmlns:xlink="http://www.w3.org/1999/xlink">
	<desc>
			Created with Pixso.
	</desc>
	<defs/>
	<path id="Vector" d="M9.7442 4.05167C9.90424 4.37833 10.3309 4.69167 10.6909 4.75166L12.8176 5.105C14.1776 5.33167 14.4976 6.31834 13.5175 7.29166L11.8642 8.945C11.5842 9.225 11.4308 9.765 11.5175 10.1517L11.9909 12.1983C12.3642 13.8183 11.5042 14.445 10.0709 13.5983L8.07751 12.4183C7.71753 12.205 7.12421 12.205 6.75757 12.4183L4.76422 13.5983C3.33752 14.445 2.47089 13.8117 2.84424 12.1983L3.31757 10.1517C3.40424 9.765 3.25085 9.225 2.97089 8.945L1.31757 7.29166C0.344238 6.31834 0.657532 5.33167 2.01752 5.105L4.14423 4.75166C4.49756 4.69167 4.92419 4.37833 5.08423 4.05167L6.25757 1.705C6.89752 0.431664 7.93756 0.431664 8.57086 1.705L9.7442 4.05167Z" stroke="#FFBD6D" stroke-opacity="1.000000" stroke-width="1.500000" stroke-linejoin="round"/>
</svg>
